<svg xmlns="http://www.w3.org/2000/svg" width="64" height="64" viewBox="0 0 16 16" role="img" aria-label="Pixel favicon">
  <rect width="16" height="16" fill="#1f2430"/>

  <rect x="1" y="1" width="14" height="14" fill="#3a2418"/>

  <rect x="1" y="1" width="14" height="1" fill="#6cd26c"/>
  <rect x="1" y="2" width="14" height="1" fill="#57b95d"/>
  <rect x="1" y="3" width="14" height="1" fill="#4b8f4e"/>

  <rect x="3" y="5" width="2" height="2" fill="#9a6846"/>
  <rect x="7" y="5" width="2" height="2" fill="#9a6846"/>
  <rect x="11" y="5" width="2" height="2" fill="#9a6846"/>

  <rect x="2" y="8" width="3" height="2" fill="#a77450"/>
  <rect x="6" y="8" width="2" height="2" fill="#7a5135"/>
  <rect x="9" y="8" width="5" height="2" fill="#a77450"/>

  <rect x="3" y="11" width="2" height="2" fill="#c99263"/>
  <rect x="6" y="11" width="4" height="2" fill="#7f5437"/>
  <rect x="11" y="11" width="2" height="2" fill="#c99263"/>

  <rect x="1" y="14" width="14" height="1" fill="#27170f"/>
  <rect x="14" y="1" width="1" height="14" fill="#2a1a12"/>
</svg>
